<svg xmlns="http://www.w3.org/2000/svg" xmlns:xlink="http://www.w3.org/1999/xlink" width="2000" zoomAndPan="magnify" viewBox="0 0 1500 1499.999933" height="2000" preserveAspectRatio="xMidYMid meet" version="1.0"><defs><g/><clipPath id="d46db005c2"><rect x="0" width="740" y="0" height="1284"/></clipPath></defs><g transform="matrix(1, 0, 0, 1, 385, 0.000000000000112861)"><g clip-path="url(#d46db005c2)"><g fill="#2563ff" fill-opacity="1"><g transform="translate(19.529315, 1173.868328)"><g><path d="M 684.171875 -13.078125 C 685.628906 -10.171875 685.265625 -7.265625 683.078125 -4.359375 C 680.898438 -1.453125 678 0 674.375 0 L 524.03125 0 C 518.945312 0 515.675781 -2.175781 514.21875 -6.53125 L 342.09375 -492.4375 L 172.140625 -6.53125 C 171.410156 -2.175781 167.773438 0 161.234375 0 L 11.984375 0 C 6.898438 0 3.445312 -1.453125 1.625 -4.359375 C -0.183594 -7.265625 -0.363281 -10.171875 1.09375 -13.078125 L 331.1875 -865.03125 C 332.644531 -869.382812 336.273438 -871.5625 342.078125 -871.5625 C 347.890625 -871.5625 351.523438 -869.382812 352.984375 -865.03125 Z M 684.171875 -13.078125 "/></g></g></g></g></g></svg>