<svg xmlns="http://www.w3.org/2000/svg" xmlns:xlink="http://www.w3.org/1999/xlink" width="2000" zoomAndPan="magnify" viewBox="0 0 1500 1499.999933" height="2000" preserveAspectRatio="xMidYMid meet" version="1.0"><defs><g/><clipPath id="62c7dce361"><path d="M 1124.03125 377.746094 L 1183.59375 377.746094 L 1183.59375 437.304688 L 1124.03125 437.304688 Z M 1124.03125 377.746094 " clip-rule="nonzero"/></clipPath><clipPath id="7aa418541c"><path d="M 0.03125 0.746094 L 59.59375 0.746094 L 59.59375 60.304688 L 0.03125 60.304688 Z M 0.03125 0.746094 " clip-rule="nonzero"/></clipPath><clipPath id="6d8a7bac0a"><rect x="0" width="60" y="0" height="61"/></clipPath><clipPath id="3c01c53cf8"><path d="M 0.398438 120 L 135 120 L 135 438 L 0.398438 438 Z M 0.398438 120 " clip-rule="nonzero"/></clipPath><clipPath id="325ff96db1"><rect x="0" width="1184" y="0" height="607"/></clipPath></defs><g transform="matrix(1, 0, 0, 1, 164, 447)"><g clip-path="url(#325ff96db1)"><g fill="#ff914d" fill-opacity="0.4"><g transform="translate(285.248884, 579.936126)"><g><path d="M 30.9375 1.0625 C 25.707031 1.0625 21.113281 0.285156 17.15625 -1.265625 C 13.207031 -2.828125 9.394531 -5.300781 5.71875 -8.6875 C 5.226562 -9.1875 4.820312 -9.734375 4.5 -10.328125 C 4.1875 -10.929688 4.03125 -11.585938 4.03125 -12.296875 C 4.03125 -13.421875 4.4375 -14.425781 5.25 -15.3125 C 6.0625 -16.195312 7.066406 -16.640625 8.265625 -16.640625 C 9.253906 -16.640625 10.132812 -16.25 10.90625 -15.46875 C 13.664062 -12.78125 16.648438 -10.726562 19.859375 -9.3125 C 23.078125 -7.90625 26.695312 -7.203125 30.71875 -7.203125 C 33.832031 -7.203125 36.640625 -7.695312 39.140625 -8.6875 C 41.648438 -9.675781 43.644531 -11.050781 45.125 -12.8125 C 46.613281 -14.582031 47.359375 -16.632812 47.359375 -18.96875 C 47.285156 -21.789062 46.453125 -24.117188 44.859375 -25.953125 C 43.273438 -27.796875 41.085938 -29.332031 38.296875 -30.5625 C 35.503906 -31.800781 32.273438 -32.84375 28.609375 -33.6875 C 25.359375 -34.46875 22.375 -35.421875 19.65625 -36.546875 C 16.9375 -37.679688 14.585938 -39.078125 12.609375 -40.734375 C 10.628906 -42.398438 9.09375 -44.414062 8 -46.78125 C 6.90625 -49.144531 6.359375 -51.914062 6.359375 -55.09375 C 6.359375 -59.125 7.414062 -62.65625 9.53125 -65.6875 C 11.65625 -68.726562 14.585938 -71.078125 18.328125 -72.734375 C 22.078125 -74.398438 26.382812 -75.234375 31.25 -75.234375 C 35.5625 -75.234375 39.640625 -74.523438 43.484375 -73.109375 C 47.335938 -71.691406 50.429688 -69.75 52.765625 -67.28125 C 54.179688 -65.9375 54.890625 -64.628906 54.890625 -63.359375 C 54.890625 -62.296875 54.445312 -61.320312 53.5625 -60.4375 C 52.675781 -59.5625 51.671875 -59.125 50.546875 -59.125 C 49.765625 -59.125 49.054688 -59.40625 48.421875 -59.96875 C 47.222656 -61.3125 45.703125 -62.507812 43.859375 -63.5625 C 42.023438 -64.625 40.015625 -65.472656 37.828125 -66.109375 C 35.640625 -66.742188 33.445312 -67.0625 31.25 -67.0625 C 28 -67.0625 25.140625 -66.582031 22.671875 -65.625 C 20.203125 -64.675781 18.273438 -63.335938 16.890625 -61.609375 C 15.515625 -59.878906 14.828125 -57.8125 14.828125 -55.40625 C 14.828125 -52.726562 15.601562 -50.523438 17.15625 -48.796875 C 18.71875 -47.066406 20.800781 -45.648438 23.40625 -44.546875 C 26.019531 -43.453125 28.921875 -42.484375 32.109375 -41.640625 C 35.566406 -40.796875 38.757812 -39.820312 41.6875 -38.71875 C 44.625 -37.625 47.148438 -36.265625 49.265625 -34.640625 C 51.390625 -33.015625 53.03125 -30.945312 54.1875 -28.4375 C 55.351562 -25.9375 55.9375 -22.847656 55.9375 -19.171875 C 55.9375 -15.285156 54.84375 -11.820312 52.65625 -8.78125 C 50.46875 -5.75 47.484375 -3.367188 43.703125 -1.640625 C 39.921875 0.0859375 35.664062 0.988281 30.9375 1.0625 Z M 30.9375 1.0625 "/></g></g></g><g fill="#ff914d" fill-opacity="0.4"><g transform="translate(389.501066, 579.936126)"><g><path d="M 32.3125 0 C 31.039062 0 29.976562 -0.421875 29.125 -1.265625 C 28.28125 -2.117188 27.859375 -3.144531 27.859375 -4.34375 L 27.859375 -69.828125 L 36.875 -69.828125 L 36.875 -4.34375 C 36.875 -3.144531 36.445312 -2.117188 35.59375 -1.265625 C 34.75 -0.421875 33.65625 0 32.3125 0 Z M 7.734375 -66.109375 C 6.535156 -66.109375 5.53125 -66.476562 4.71875 -67.21875 C 3.90625 -67.96875 3.5 -68.941406 3.5 -70.140625 C 3.5 -71.335938 3.90625 -72.304688 4.71875 -73.046875 C 5.53125 -73.796875 6.535156 -74.171875 7.734375 -74.171875 L 57 -74.171875 C 58.195312 -74.171875 59.21875 -73.796875 60.0625 -73.046875 C 60.914062 -72.304688 61.34375 -71.335938 61.34375 -70.140625 C 61.34375 -68.867188 60.914062 -67.878906 60.0625 -67.171875 C 59.21875 -66.460938 58.195312 -66.109375 57 -66.109375 Z M 7.734375 -66.109375 "/></g></g></g><g fill="#ff914d" fill-opacity="0.4"><g transform="translate(497.673223, 579.936126)"><g><path d="M 61.875 -74.265625 C 63.070312 -74.265625 64.0625 -73.84375 64.84375 -73 C 65.625 -72.15625 66.015625 -71.128906 66.015625 -69.921875 L 66.015625 -27.859375 C 66.015625 -22.421875 64.757812 -17.546875 62.25 -13.234375 C 59.738281 -8.929688 56.363281 -5.523438 52.125 -3.015625 C 47.882812 -0.515625 43.082031 0.734375 37.71875 0.734375 C 32.28125 0.734375 27.421875 -0.515625 23.140625 -3.015625 C 18.867188 -5.523438 15.5 -8.929688 13.03125 -13.234375 C 10.5625 -17.546875 9.328125 -22.421875 9.328125 -27.859375 L 9.328125 -69.921875 C 9.328125 -71.128906 9.734375 -72.15625 10.546875 -73 C 11.359375 -73.84375 12.4375 -74.265625 13.78125 -74.265625 C 14.90625 -74.265625 15.910156 -73.84375 16.796875 -73 C 17.679688 -72.15625 18.125 -71.128906 18.125 -69.921875 L 18.125 -27.859375 C 18.125 -23.972656 19.003906 -20.507812 20.765625 -17.46875 C 22.535156 -14.4375 24.921875 -12.054688 27.921875 -10.328125 C 30.921875 -8.597656 34.1875 -7.734375 37.71875 -7.734375 C 41.320312 -7.734375 44.640625 -8.597656 47.671875 -10.328125 C 50.710938 -12.054688 53.164062 -14.4375 55.03125 -17.46875 C 56.90625 -20.507812 57.84375 -23.972656 57.84375 -27.859375 L 57.84375 -69.921875 C 57.84375 -71.128906 58.195312 -72.15625 58.90625 -73 C 59.613281 -73.84375 60.601562 -74.265625 61.875 -74.265625 Z M 61.875 -74.265625 "/></g></g></g><g fill="#ff914d" fill-opacity="0.4"><g transform="translate(616.333922, 579.936126)"><g><path d="M 40.046875 -74.171875 C 45.203125 -74.171875 49.738281 -73.195312 53.65625 -71.25 C 57.582031 -69.3125 60.851562 -66.609375 63.46875 -63.140625 C 66.082031 -59.679688 68.039062 -55.707031 69.34375 -51.21875 C 70.65625 -46.738281 71.3125 -42.023438 71.3125 -37.078125 C 71.3125 -30.296875 70.144531 -24.097656 67.8125 -18.484375 C 65.476562 -12.867188 62.015625 -8.382812 57.421875 -5.03125 C 52.835938 -1.675781 47.046875 0 40.046875 0 L 13.5625 0 C 12.363281 0 11.359375 -0.421875 10.546875 -1.265625 C 9.734375 -2.117188 9.328125 -3.144531 9.328125 -4.34375 L 9.328125 -69.921875 C 9.328125 -71.128906 9.734375 -72.140625 10.546875 -72.953125 C 11.359375 -73.765625 12.363281 -74.171875 13.5625 -74.171875 Z M 38.984375 -8.265625 C 44.429688 -8.265625 48.863281 -9.570312 52.28125 -12.1875 C 55.707031 -14.800781 58.210938 -18.296875 59.796875 -22.671875 C 61.390625 -27.054688 62.1875 -31.859375 62.1875 -37.078125 C 62.1875 -40.898438 61.742188 -44.554688 60.859375 -48.046875 C 59.984375 -51.546875 58.609375 -54.632812 56.734375 -57.3125 C 54.867188 -60 52.46875 -62.117188 49.53125 -63.671875 C 46.601562 -65.234375 43.085938 -66.015625 38.984375 -66.015625 L 17.265625 -66.015625 L 18.125 -66.859375 L 18.125 -7.203125 L 17.484375 -8.265625 Z M 38.984375 -8.265625 "/></g></g></g><g fill="#ff914d" fill-opacity="0.4"><g transform="translate(735.842199, 579.936126)"><g><path d="M 18.125 -4.34375 C 18.125 -3.144531 17.679688 -2.117188 16.796875 -1.265625 C 15.910156 -0.421875 14.867188 0 13.671875 0 C 12.328125 0 11.265625 -0.421875 10.484375 -1.265625 C 9.710938 -2.117188 9.328125 -3.144531 9.328125 -4.34375 L 9.328125 -69.828125 C 9.328125 -71.097656 9.75 -72.140625 10.59375 -72.953125 C 11.4375 -73.765625 12.5 -74.171875 13.78125 -74.171875 C 14.976562 -74.171875 16 -73.765625 16.84375 -72.953125 C 17.695312 -72.140625 18.125 -71.097656 18.125 -69.828125 Z M 18.125 -4.34375 "/></g></g></g><g fill="#ff914d" fill-opacity="0.4"><g transform="translate(806.721724, 579.936126)"><g><path d="M 76.1875 -37.078125 C 76.1875 -31.640625 75.300781 -26.609375 73.53125 -21.984375 C 71.757812 -17.359375 69.285156 -13.3125 66.109375 -9.84375 C 62.929688 -6.382812 59.148438 -3.703125 54.765625 -1.796875 C 50.390625 0.105469 45.625 1.0625 40.46875 1.0625 C 35.25 1.0625 30.460938 0.105469 26.109375 -1.796875 C 21.765625 -3.703125 18.003906 -6.382812 14.828125 -9.84375 C 11.648438 -13.3125 9.175781 -17.359375 7.40625 -21.984375 C 5.644531 -26.609375 4.765625 -31.640625 4.765625 -37.078125 C 4.765625 -42.585938 5.644531 -47.65625 7.40625 -52.28125 C 9.175781 -56.914062 11.648438 -60.941406 14.828125 -64.359375 C 18.003906 -67.785156 21.765625 -70.453125 26.109375 -72.359375 C 30.460938 -74.273438 35.25 -75.234375 40.46875 -75.234375 C 45.625 -75.234375 50.390625 -74.273438 54.765625 -72.359375 C 59.148438 -70.453125 62.929688 -67.785156 66.109375 -64.359375 C 69.285156 -60.941406 71.757812 -56.914062 73.53125 -52.28125 C 75.300781 -47.65625 76.1875 -42.585938 76.1875 -37.078125 Z M 67.0625 -37.078125 C 67.0625 -42.867188 65.914062 -47.988281 63.625 -52.4375 C 61.332031 -56.894531 58.207031 -60.394531 54.25 -62.9375 C 50.289062 -65.476562 45.695312 -66.75 40.46875 -66.75 C 35.25 -66.75 30.640625 -65.476562 26.640625 -62.9375 C 22.648438 -60.394531 19.523438 -56.894531 17.265625 -52.4375 C 15.003906 -47.988281 13.875 -42.867188 13.875 -37.078125 C 13.875 -31.359375 15.003906 -26.253906 17.265625 -21.765625 C 19.523438 -17.285156 22.648438 -13.773438 26.640625 -11.234375 C 30.640625 -8.691406 35.25 -7.421875 40.46875 -7.421875 C 45.695312 -7.421875 50.289062 -8.691406 54.25 -11.234375 C 58.207031 -13.773438 61.332031 -17.285156 63.625 -21.765625 C 65.914062 -26.253906 67.0625 -31.359375 67.0625 -37.078125 Z M 67.0625 -37.078125 "/></g></g></g><g fill="#2563ff" fill-opacity="1"><g transform="translate(284.780647, 579.467886)"><g><path d="M 30.9375 1.0625 C 25.707031 1.0625 21.113281 0.285156 17.15625 -1.265625 C 13.207031 -2.828125 9.394531 -5.300781 5.71875 -8.6875 C 5.226562 -9.1875 4.820312 -9.734375 4.5 -10.328125 C 4.1875 -10.929688 4.03125 -11.585938 4.03125 -12.296875 C 4.03125 -13.421875 4.4375 -14.425781 5.25 -15.3125 C 6.0625 -16.195312 7.066406 -16.640625 8.265625 -16.640625 C 9.253906 -16.640625 10.132812 -16.25 10.90625 -15.46875 C 13.664062 -12.78125 16.648438 -10.726562 19.859375 -9.3125 C 23.078125 -7.90625 26.695312 -7.203125 30.71875 -7.203125 C 33.832031 -7.203125 36.640625 -7.695312 39.140625 -8.6875 C 41.648438 -9.675781 43.644531 -11.050781 45.125 -12.8125 C 46.613281 -14.582031 47.359375 -16.632812 47.359375 -18.96875 C 47.285156 -21.789062 46.453125 -24.117188 44.859375 -25.953125 C 43.273438 -27.796875 41.085938 -29.332031 38.296875 -30.5625 C 35.503906 -31.800781 32.273438 -32.84375 28.609375 -33.6875 C 25.359375 -34.46875 22.375 -35.421875 19.65625 -36.546875 C 16.9375 -37.679688 14.585938 -39.078125 12.609375 -40.734375 C 10.628906 -42.398438 9.09375 -44.414062 8 -46.78125 C 6.90625 -49.144531 6.359375 -51.914062 6.359375 -55.09375 C 6.359375 -59.125 7.414062 -62.65625 9.53125 -65.6875 C 11.65625 -68.726562 14.585938 -71.078125 18.328125 -72.734375 C 22.078125 -74.398438 26.382812 -75.234375 31.25 -75.234375 C 35.5625 -75.234375 39.640625 -74.523438 43.484375 -73.109375 C 47.335938 -71.691406 50.429688 -69.75 52.765625 -67.28125 C 54.179688 -65.9375 54.890625 -64.628906 54.890625 -63.359375 C 54.890625 -62.296875 54.445312 -61.320312 53.5625 -60.4375 C 52.675781 -59.5625 51.671875 -59.125 50.546875 -59.125 C 49.765625 -59.125 49.054688 -59.40625 48.421875 -59.96875 C 47.222656 -61.3125 45.703125 -62.507812 43.859375 -63.5625 C 42.023438 -64.625 40.015625 -65.472656 37.828125 -66.109375 C 35.640625 -66.742188 33.445312 -67.0625 31.25 -67.0625 C 28 -67.0625 25.140625 -66.582031 22.671875 -65.625 C 20.203125 -64.675781 18.273438 -63.335938 16.890625 -61.609375 C 15.515625 -59.878906 14.828125 -57.8125 14.828125 -55.40625 C 14.828125 -52.726562 15.601562 -50.523438 17.15625 -48.796875 C 18.71875 -47.066406 20.800781 -45.648438 23.40625 -44.546875 C 26.019531 -43.453125 28.921875 -42.484375 32.109375 -41.640625 C 35.566406 -40.796875 38.757812 -39.820312 41.6875 -38.71875 C 44.625 -37.625 47.148438 -36.265625 49.265625 -34.640625 C 51.390625 -33.015625 53.03125 -30.945312 54.1875 -28.4375 C 55.351562 -25.9375 55.9375 -22.847656 55.9375 -19.171875 C 55.9375 -15.285156 54.84375 -11.820312 52.65625 -8.78125 C 50.46875 -5.75 47.484375 -3.367188 43.703125 -1.640625 C 39.921875 0.0859375 35.664062 0.988281 30.9375 1.0625 Z M 30.9375 1.0625 "/></g></g></g><g fill="#2563ff" fill-opacity="1"><g transform="translate(389.032828, 579.467886)"><g><path d="M 32.3125 0 C 31.039062 0 29.976562 -0.421875 29.125 -1.265625 C 28.28125 -2.117188 27.859375 -3.144531 27.859375 -4.34375 L 27.859375 -69.828125 L 36.875 -69.828125 L 36.875 -4.34375 C 36.875 -3.144531 36.445312 -2.117188 35.59375 -1.265625 C 34.75 -0.421875 33.65625 0 32.3125 0 Z M 7.734375 -66.109375 C 6.535156 -66.109375 5.53125 -66.476562 4.71875 -67.21875 C 3.90625 -67.96875 3.5 -68.941406 3.5 -70.140625 C 3.5 -71.335938 3.90625 -72.304688 4.71875 -73.046875 C 5.53125 -73.796875 6.535156 -74.171875 7.734375 -74.171875 L 57 -74.171875 C 58.195312 -74.171875 59.21875 -73.796875 60.0625 -73.046875 C 60.914062 -72.304688 61.34375 -71.335938 61.34375 -70.140625 C 61.34375 -68.867188 60.914062 -67.878906 60.0625 -67.171875 C 59.21875 -66.460938 58.195312 -66.109375 57 -66.109375 Z M 7.734375 -66.109375 "/></g></g></g><g fill="#2563ff" fill-opacity="1"><g transform="translate(497.204986, 579.467886)"><g><path d="M 61.875 -74.265625 C 63.070312 -74.265625 64.0625 -73.84375 64.84375 -73 C 65.625 -72.15625 66.015625 -71.128906 66.015625 -69.921875 L 66.015625 -27.859375 C 66.015625 -22.421875 64.757812 -17.546875 62.25 -13.234375 C 59.738281 -8.929688 56.363281 -5.523438 52.125 -3.015625 C 47.882812 -0.515625 43.082031 0.734375 37.71875 0.734375 C 32.28125 0.734375 27.421875 -0.515625 23.140625 -3.015625 C 18.867188 -5.523438 15.5 -8.929688 13.03125 -13.234375 C 10.5625 -17.546875 9.328125 -22.421875 9.328125 -27.859375 L 9.328125 -69.921875 C 9.328125 -71.128906 9.734375 -72.15625 10.546875 -73 C 11.359375 -73.84375 12.4375 -74.265625 13.78125 -74.265625 C 14.90625 -74.265625 15.910156 -73.84375 16.796875 -73 C 17.679688 -72.15625 18.125 -71.128906 18.125 -69.921875 L 18.125 -27.859375 C 18.125 -23.972656 19.003906 -20.507812 20.765625 -17.46875 C 22.535156 -14.4375 24.921875 -12.054688 27.921875 -10.328125 C 30.921875 -8.597656 34.1875 -7.734375 37.71875 -7.734375 C 41.320312 -7.734375 44.640625 -8.597656 47.671875 -10.328125 C 50.710938 -12.054688 53.164062 -14.4375 55.03125 -17.46875 C 56.90625 -20.507812 57.84375 -23.972656 57.84375 -27.859375 L 57.84375 -69.921875 C 57.84375 -71.128906 58.195312 -72.15625 58.90625 -73 C 59.613281 -73.84375 60.601562 -74.265625 61.875 -74.265625 Z M 61.875 -74.265625 "/></g></g></g><g fill="#2563ff" fill-opacity="1"><g transform="translate(615.865684, 579.467886)"><g><path d="M 40.046875 -74.171875 C 45.203125 -74.171875 49.738281 -73.195312 53.65625 -71.25 C 57.582031 -69.3125 60.851562 -66.609375 63.46875 -63.140625 C 66.082031 -59.679688 68.039062 -55.707031 69.34375 -51.21875 C 70.65625 -46.738281 71.3125 -42.023438 71.3125 -37.078125 C 71.3125 -30.296875 70.144531 -24.097656 67.8125 -18.484375 C 65.476562 -12.867188 62.015625 -8.382812 57.421875 -5.03125 C 52.835938 -1.675781 47.046875 0 40.046875 0 L 13.5625 0 C 12.363281 0 11.359375 -0.421875 10.546875 -1.265625 C 9.734375 -2.117188 9.328125 -3.144531 9.328125 -4.34375 L 9.328125 -69.921875 C 9.328125 -71.128906 9.734375 -72.140625 10.546875 -72.953125 C 11.359375 -73.765625 12.363281 -74.171875 13.5625 -74.171875 Z M 38.984375 -8.265625 C 44.429688 -8.265625 48.863281 -9.570312 52.28125 -12.1875 C 55.707031 -14.800781 58.210938 -18.296875 59.796875 -22.671875 C 61.390625 -27.054688 62.1875 -31.859375 62.1875 -37.078125 C 62.1875 -40.898438 61.742188 -44.554688 60.859375 -48.046875 C 59.984375 -51.546875 58.609375 -54.632812 56.734375 -57.3125 C 54.867188 -60 52.46875 -62.117188 49.53125 -63.671875 C 46.601562 -65.234375 43.085938 -66.015625 38.984375 -66.015625 L 17.265625 -66.015625 L 18.125 -66.859375 L 18.125 -7.203125 L 17.484375 -8.265625 Z M 38.984375 -8.265625 "/></g></g></g><g fill="#2563ff" fill-opacity="1"><g transform="translate(735.373962, 579.467886)"><g><path d="M 18.125 -4.34375 C 18.125 -3.144531 17.679688 -2.117188 16.796875 -1.265625 C 15.910156 -0.421875 14.867188 0 13.671875 0 C 12.328125 0 11.265625 -0.421875 10.484375 -1.265625 C 9.710938 -2.117188 9.328125 -3.144531 9.328125 -4.34375 L 9.328125 -69.828125 C 9.328125 -71.097656 9.75 -72.140625 10.59375 -72.953125 C 11.4375 -73.765625 12.5 -74.171875 13.78125 -74.171875 C 14.976562 -74.171875 16 -73.765625 16.84375 -72.953125 C 17.695312 -72.140625 18.125 -71.097656 18.125 -69.828125 Z M 18.125 -4.34375 "/></g></g></g><g fill="#2563ff" fill-opacity="1"><g transform="translate(806.253486, 579.467886)"><g><path d="M 76.1875 -37.078125 C 76.1875 -31.640625 75.300781 -26.609375 73.53125 -21.984375 C 71.757812 -17.359375 69.285156 -13.3125 66.109375 -9.84375 C 62.929688 -6.382812 59.148438 -3.703125 54.765625 -1.796875 C 50.390625 0.105469 45.625 1.0625 40.46875 1.0625 C 35.25 1.0625 30.460938 0.105469 26.109375 -1.796875 C 21.765625 -3.703125 18.003906 -6.382812 14.828125 -9.84375 C 11.648438 -13.3125 9.175781 -17.359375 7.40625 -21.984375 C 5.644531 -26.609375 4.765625 -31.640625 4.765625 -37.078125 C 4.765625 -42.585938 5.644531 -47.65625 7.40625 -52.28125 C 9.175781 -56.914062 11.648438 -60.941406 14.828125 -64.359375 C 18.003906 -67.785156 21.765625 -70.453125 26.109375 -72.359375 C 30.460938 -74.273438 35.25 -75.234375 40.46875 -75.234375 C 45.625 -75.234375 50.390625 -74.273438 54.765625 -72.359375 C 59.148438 -70.453125 62.929688 -67.785156 66.109375 -64.359375 C 69.285156 -60.941406 71.757812 -56.914062 73.53125 -52.28125 C 75.300781 -47.65625 76.1875 -42.585938 76.1875 -37.078125 Z M 67.0625 -37.078125 C 67.0625 -42.867188 65.914062 -47.988281 63.625 -52.4375 C 61.332031 -56.894531 58.207031 -60.394531 54.25 -62.9375 C 50.289062 -65.476562 45.695312 -66.75 40.46875 -66.75 C 35.25 -66.75 30.640625 -65.476562 26.640625 -62.9375 C 22.648438 -60.394531 19.523438 -56.894531 17.265625 -52.4375 C 15.003906 -47.988281 13.875 -42.867188 13.875 -37.078125 C 13.875 -31.359375 15.003906 -26.253906 17.265625 -21.765625 C 19.523438 -17.285156 22.648438 -13.773438 26.640625 -11.234375 C 30.640625 -8.691406 35.25 -7.421875 40.46875 -7.421875 C 45.695312 -7.421875 50.289062 -8.691406 54.25 -11.234375 C 58.207031 -13.773438 61.332031 -17.285156 63.625 -21.765625 C 65.914062 -26.253906 67.0625 -31.359375 67.0625 -37.078125 Z M 67.0625 -37.078125 "/></g></g></g><g clip-path="url(#62c7dce361)"><g transform="matrix(1, 0, 0, 1, 1124, 377)"><g clip-path="url(#6d8a7bac0a)"><g clip-path="url(#7aa418541c)"><path fill="#2563ff" d="M 0.03125 0.746094 L 59.589844 0.746094 L 59.589844 60.304688 L 0.03125 60.304688 Z M 0.03125 0.746094 " fill-opacity="1" fill-rule="nonzero"/></g></g></g></g><g clip-path="url(#3c01c53cf8)"><g fill="#292929" fill-opacity="1"><g transform="translate(0.669803, 437.897907)"><g><path d="M 129.359375 -54.359375 C 132.265625 -54.359375 133.71875 -53.171875 133.71875 -50.796875 L 133.71875 -3.578125 C 133.71875 -1.191406 132.265625 0 129.359375 0 L 4.359375 0 C 1.453125 0 0 -1.191406 0 -3.578125 L 0 -50.796875 C 0 -53.171875 1.453125 -54.359375 4.359375 -54.359375 L 36.90625 -54.359375 L 36.90625 -317.4375 L 97.609375 -317.4375 L 97.609375 -54.359375 Z M 129.359375 -54.359375 "/></g></g></g></g><g fill="#292929" fill-opacity="1"><g transform="translate(160.979042, 437.897907)"><g><path d="M 56.34375 -317.4375 C 71.6875 -317.4375 87.953125 -316.378906 105.140625 -314.265625 C 122.335938 -312.148438 139.003906 -308.050781 155.140625 -301.96875 C 171.285156 -295.882812 185.90625 -287.019531 199 -275.375 C 212.09375 -263.738281 222.539062 -248.460938 230.34375 -229.546875 C 238.144531 -210.628906 242.046875 -187.019531 242.046875 -158.71875 C 242.046875 -131.46875 238.207031 -108.519531 230.53125 -89.875 C 222.863281 -71.226562 212.546875 -56.015625 199.578125 -44.234375 C 186.617188 -32.460938 172.003906 -23.335938 155.734375 -16.859375 C 139.472656 -10.378906 122.8125 -5.945312 105.75 -3.5625 C 88.6875 -1.1875 72.21875 0 56.34375 0 L 4.359375 0 C 1.453125 0 0 -1.191406 0 -3.578125 L 0 -128.171875 L 60.703125 -128.171875 L 60.703125 -58.328125 C 68.378906 -58.066406 77.375 -58.265625 87.6875 -58.921875 C 98.007812 -59.585938 108.59375 -61.570312 119.4375 -64.875 C 130.28125 -68.1875 140.394531 -73.410156 149.78125 -80.546875 C 159.175781 -87.691406 166.71875 -97.613281 172.40625 -110.3125 C 178.09375 -123.007812 180.9375 -139.144531 180.9375 -158.71875 C 180.9375 -183.851562 175.710938 -204.023438 165.265625 -219.234375 C 154.816406 -234.441406 140.53125 -245.285156 122.40625 -251.765625 C 104.289062 -258.242188 83.722656 -260.820312 60.703125 -259.5 L 60.703125 -189.265625 L 0 -189.265625 L 0 -313.859375 C 0 -316.242188 1.453125 -317.4375 4.359375 -317.4375 Z M 56.34375 -317.4375 "/></g></g></g><g fill="#292929" fill-opacity="1"><g transform="translate(435.170959, 437.897907)"><g><path d="M 150.78125 -59.125 L 150.78125 0 L 4.359375 0 C 1.453125 0 0 -1.191406 0 -3.578125 L 0 -313.859375 C 0 -316.242188 1.453125 -317.4375 4.359375 -317.4375 L 150.78125 -317.4375 L 150.78125 -259.90625 L 60.703125 -259.90625 L 60.703125 -188.078125 L 185.296875 -188.078125 C 188.210938 -188.078125 189.671875 -186.890625 189.671875 -184.515625 L 189.671875 -134.125 C 189.671875 -131.738281 188.210938 -130.546875 185.296875 -130.546875 L 60.703125 -130.546875 L 60.703125 -59.125 Z M 150.78125 -59.125 "/></g></g></g><g fill="#2563ff" fill-opacity="1"><g transform="translate(611.826559, 437.897907)"><g><path d="M 249.1875 -4.765625 C 249.71875 -3.703125 249.582031 -2.640625 248.78125 -1.578125 C 247.988281 -0.523438 246.9375 0 245.625 0 L 190.859375 0 C 189.003906 0 187.8125 -0.789062 187.28125 -2.375 L 124.59375 -179.359375 L 62.6875 -2.375 C 62.425781 -0.789062 61.101562 0 58.71875 0 L 4.359375 0 C 2.515625 0 1.257812 -0.523438 0.59375 -1.578125 C -0.0585938 -2.640625 -0.128906 -3.703125 0.390625 -4.765625 L 120.625 -315.0625 C 121.15625 -316.644531 122.476562 -317.4375 124.59375 -317.4375 C 126.707031 -317.4375 128.03125 -316.644531 128.5625 -315.0625 Z M 249.1875 -4.765625 "/></g></g></g><g fill="#292929" fill-opacity="1"><g transform="translate(816.478607, 437.897907)"><g><path d="M 145.625 -176.171875 C 162.289062 -168.503906 175.050781 -157.328125 183.90625 -142.640625 C 192.769531 -127.960938 197.203125 -111.234375 197.203125 -92.453125 C 197.203125 -72.609375 192.503906 -55.804688 183.109375 -42.046875 C 173.722656 -28.296875 161.554688 -17.847656 146.609375 -10.703125 C 131.671875 -3.566406 115.734375 0 98.796875 0 C 98.796875 0 98.664062 0 98.40625 0 L 98.40625 -57.140625 C 98.664062 -57.140625 98.796875 -57.140625 98.796875 -57.140625 C 109.378906 -57.140625 118.640625 -60.378906 126.578125 -66.859375 C 134.515625 -73.335938 138.484375 -81.867188 138.484375 -92.453125 C 138.484375 -100.390625 136.429688 -107.132812 132.328125 -112.6875 C 128.234375 -118.238281 123.140625 -122.601562 117.046875 -125.78125 C 110.960938 -128.957031 104.878906 -130.675781 98.796875 -130.9375 C 97.472656 -130.9375 92.179688 -131.398438 82.921875 -132.328125 C 73.671875 -133.253906 63.222656 -136.363281 51.578125 -141.65625 C 35.179688 -149.320312 22.484375 -159.96875 13.484375 -173.59375 C 4.492188 -187.21875 0 -203.289062 0 -221.8125 C 0 -241.644531 4.691406 -258.703125 14.078125 -272.984375 C 23.472656 -287.273438 35.707031 -298.253906 50.78125 -305.921875 C 65.863281 -313.597656 81.867188 -317.4375 98.796875 -317.4375 C 117.054688 -317.4375 133.457031 -313.664062 148 -306.125 C 162.550781 -298.582031 174.125 -288 182.71875 -274.375 C 191.320312 -260.757812 195.753906 -244.957031 196.015625 -226.96875 C 196.285156 -226.4375 195.957031 -225.773438 195.03125 -224.984375 C 194.101562 -224.191406 192.976562 -223.796875 191.65625 -223.796875 L 142.046875 -223.796875 C 140.992188 -223.796875 140.003906 -224.191406 139.078125 -224.984375 C 138.148438 -225.773438 137.6875 -226.4375 137.6875 -226.96875 C 137.425781 -238.34375 133.457031 -246.738281 125.78125 -252.15625 C 118.113281 -257.582031 109.117188 -260.296875 98.796875 -260.296875 C 87.953125 -260.296875 78.628906 -257.054688 70.828125 -250.578125 C 63.023438 -244.097656 59.125 -234.507812 59.125 -221.8125 C 59.125 -210.4375 63.222656 -201.769531 71.421875 -195.8125 C 79.617188 -189.863281 88.742188 -186.890625 98.796875 -186.890625 C 99.597656 -186.890625 102.242188 -186.753906 106.734375 -186.484375 C 111.234375 -186.222656 116.988281 -185.363281 124 -183.90625 C 131.007812 -182.457031 138.21875 -179.878906 145.625 -176.171875 Z M 145.625 -176.171875 "/></g></g></g></g></g></svg>