<svg xmlns="http://www.w3.org/2000/svg" viewBox="0 0 1500 1500" role="img" aria-label="Ideas Studio"><rect width="1500" height="1500" rx="320" fill="#f8fbff"/><path fill="#2563ff" d="M1089.17 1160.79c1.46 2.91 1.09 5.81-1.09 8.72-2.18 2.91-5.08 4.36-8.71 4.36H929.03c-5.08 0-8.35-2.18-9.81-6.53L747.09 681.44 577.14 1167.34c-.73 4.36-4.37 6.53-10.91 6.53H416.98c-5.08 0-8.53-1.45-10.36-4.36-1.81-2.91-1.99-5.81-.53-8.72l330.09-851.95c1.46-4.35 5.09-6.53 10.89-6.53 5.81 0 9.45 2.18 10.91 6.53z"/></svg>
